#N canvas 567 172 569 331 10;
#X obj 107 131 phasor~;
#X obj 107 104 mtof;
#X obj 67 131 mtof;
#X obj 67 158 osc~;
#X obj 107 215 *~;
#X obj 265 198 vline~;
#X obj 157 131 expr~ $v1 > 0.5;
#X obj 265 51 bng 15 250 50 0 empty empty Play 20 7 0 10 -262144 -1
-1;
#X obj 157 104 phasor~;
#X obj 157 77 mtof;
#X floatatom 67 61 5 0 0 0 - - -;
#X obj 285 141 vline~;
#X obj 107 158 *~;
#X msg 285 114 0.1 0 \, 0.1 0 100 \, 0 3500 100;
#X obj 157 158 *~ 0.15;
#X msg 265 171 0.4 0 \, 0.3 0 100 \, 0 2500 100;
#X obj 107 77 -12;
#X obj 67 7 inlet;
#X obj 67 34 note;
#X obj 107 252 throw~;
#X connect 0 0 12 0;
#X connect 1 0 0 0;
#X connect 2 0 3 0;
#X connect 3 0 4 0;
#X connect 4 0 19 0;
#X connect 5 0 4 1;
#X connect 6 0 14 0;
#X connect 7 0 15 0;
#X connect 7 0 13 0;
#X connect 8 0 6 0;
#X connect 9 0 8 0;
#X connect 10 0 2 0;
#X connect 10 0 9 0;
#X connect 10 0 16 0;
#X connect 11 0 12 1;
#X connect 12 0 4 0;
#X connect 13 0 11 0;
#X connect 14 0 4 0;
#X connect 15 0 5 0;
#X connect 16 0 1 0;
#X connect 17 0 18 0;
#X connect 18 0 10 0;
#X connect 18 0 7 0;
