#N canvas 575 195 628 472 10;
#X msg 53 218 60;
#X obj 53 171 sel C C# Db D D# Eb E F F# Gb G G# Ab A A# Bb B;
#X msg 77 198 61;
#X msg 102 218 62;
#X msg 126 198 63;
#X msg 151 218 64;
#X msg 167 218 65;
#X msg 192 198 66;
#X msg 217 218 67;
#X msg 241 198 68;
#X msg 266 218 69;
#X msg 290 198 70;
#X msg 315 218 71;
#X floatatom 404 235 5 0 0 0 - - -;
#X symbolatom 53 109 10 0 0 0 - - -;
#X obj 53 82 unpack s f;
#X floatatom 419 99 5 0 0 0 - - -;
#X obj 419 125 sel 0 1 2 3 4 5 6 7 8;
#X floatatom 404 308 5 0 0 0 - - -;
#X msg 460 152 -12;
#X obj 404 281 +;
#X msg 446 172 -24;
#X msg 432 152 -36;
#X msg 419 172 -48;
#X obj 404 361 outlet;
#X obj 53 55 inlet;
#X msg 487 152 12;
#X msg 501 172 24;
#X msg 514 152 36;
#X msg 528 172 48;
#X msg 473 172 0;
#X obj 462 361 print INPUT ERROR;
#X connect 0 0 13 0;
#X connect 1 0 0 0;
#X connect 1 1 2 0;
#X connect 1 2 2 0;
#X connect 1 3 3 0;
#X connect 1 4 4 0;
#X connect 1 5 4 0;
#X connect 1 6 5 0;
#X connect 1 7 6 0;
#X connect 1 8 7 0;
#X connect 1 9 7 0;
#X connect 1 10 8 0;
#X connect 1 11 9 0;
#X connect 1 12 9 0;
#X connect 1 13 10 0;
#X connect 1 14 11 0;
#X connect 1 15 11 0;
#X connect 1 16 12 0;
#X connect 1 17 31 0;
#X connect 2 0 13 0;
#X connect 3 0 13 0;
#X connect 4 0 13 0;
#X connect 5 0 13 0;
#X connect 6 0 13 0;
#X connect 7 0 13 0;
#X connect 8 0 13 0;
#X connect 9 0 13 0;
#X connect 10 0 13 0;
#X connect 11 0 13 0;
#X connect 12 0 13 0;
#X connect 13 0 20 0;
#X connect 14 0 1 0;
#X connect 15 0 14 0;
#X connect 15 1 16 0;
#X connect 16 0 17 0;
#X connect 17 0 23 0;
#X connect 17 1 22 0;
#X connect 17 2 21 0;
#X connect 17 3 19 0;
#X connect 17 4 30 0;
#X connect 17 5 26 0;
#X connect 17 6 27 0;
#X connect 17 7 28 0;
#X connect 17 8 29 0;
#X connect 17 9 31 0;
#X connect 18 0 24 0;
#X connect 19 0 20 1;
#X connect 20 0 18 0;
#X connect 21 0 20 1;
#X connect 22 0 20 1;
#X connect 23 0 20 1;
#X connect 25 0 15 0;
#X connect 26 0 20 1;
#X connect 27 0 20 1;
#X connect 28 0 20 1;
#X connect 29 0 20 1;
#X connect 30 0 20 1;
