#N canvas 93 132 640 480 10;
#X obj 278 134 image images/paramount.gif;
#X obj 48 48 cnv 15 225 180 empty canvas empty 20 12 0 14 -262144 -262144
0;
#X obj 38 128 hradio 45 1 0 5 row2 r_row2 empty 0 -8 0 10 -262144 -204800
-1 3;
#X obj 38 173 hradio 45 1 0 5 row3 r_row3 empty 0 -8 0 10 -262144 -261682
-1 2;
#X obj 38 83 hradio 45 1 0 5 row1 r_row1 empty 0 -8 0 10 -262144 -204786
-1 2;
#X obj 41 38 hsl 220 45 0 100 0 0 difference default empty -2 -8 0
10 -262144 -232576 -1 16425 1;
#N canvas 934 156 336 71 resources 0;
#N canvas 49 238 809 465 clock 0;
#X obj 38 38 sel 0;
#X floatatom 38 22 5 0 0 0 - timekeeper -;
#X obj 78 38 sel 1;
#X obj 118 38 sel 2;
#X obj 158 38 sel 3;
#X msg 38 65 2;
#X msg 78 65 4;
#X msg 118 65 6;
#X floatatom 78 101 5 0 0 0 - - clock;
#X obj 198 38 sel 4;
#X obj 142 297 metro;
#X obj 302 297 metro;
#X obj 462 297 metro;
#X floatatom 348 202 5 0 0 0 - - -;
#X floatatom 368 149 5 0 0 0 - clock -;
#X floatatom 612 351 5 0 0 0 multiplier - timekeeper;
#X obj 612 297 metro;
#X obj 348 175 *;
#X msg 329 121 250;
#X obj 329 244 mux 1 2;
#X floatatom 329 271 5 0 0 0 - - -;
#X obj 302 212 bng 15 250 50 0 empty empty empty 17 7 0 10 -262144
-1 -1;
#X floatatom 188 202 5 0 0 0 - - -;
#X floatatom 208 149 5 0 0 0 - clock -;
#X obj 188 175 *;
#X msg 169 121 250;
#X obj 169 244 mux 1 2;
#X floatatom 169 271 5 0 0 0 - - -;
#X obj 142 212 bng 15 250 50 0 empty empty empty 17 7 0 10 -262144
-1 -1;
#X floatatom 658 202 5 0 0 0 - - -;
#X floatatom 678 149 5 0 0 0 - clock -;
#X obj 658 175 *;
#X msg 639 121 250;
#X obj 639 244 mux 1 2;
#X floatatom 639 271 5 0 0 0 - - -;
#X obj 612 212 bng 15 250 50 0 empty empty empty 17 7 0 10 -262144
-1 -1;
#X floatatom 508 202 5 0 0 0 - - -;
#X floatatom 528 149 5 0 0 0 - clock -;
#X obj 508 175 *;
#X obj 489 244 mux 1 2;
#X floatatom 489 271 5 0 0 0 - - -;
#X obj 462 212 bng 15 250 50 0 empty empty empty 17 7 0 10 -262144
-1 -1;
#X obj 122 282 tgl 15 0 empty empty empty 17 7 0 10 -262144 -1 -1 0
1;
#X obj 142 351 t b f f;
#X floatatom 181 378 5 0 0 0 - - r_row1;
#X obj 142 378 bng 15 250 50 0 b_row1 empty empty 17 7 0 10 -262144
-1 -1;
#X obj 302 351 t b f f;
#X floatatom 341 378 5 0 0 0 - - r_row2;
#X obj 302 378 bng 15 250 50 0 b_row2 empty empty 17 7 0 10 -262144
-1 -1;
#X obj 462 351 t b f f;
#X floatatom 501 378 5 0 0 0 - - r_row3;
#X obj 462 378 bng 15 250 50 0 b_row3 empty empty 17 7 0 10 -262144
-1 -1;
#X obj 142 324 random 5;
#X obj 302 324 random 5;
#X obj 462 324 random 5;
#X obj 612 324 random 5;
#X obj 226 227 random 3;
#X obj 386 227 random 3;
#X obj 546 227 random 3;
#X obj 696 227 random 3;
#X msg 158 65 8;
#X msg 198 65 10;
#X msg 489 121 500;
#X obj 51 159 tgl 15 0 empty power empty 17 7 0 10 -262144 -1 -1 0
1;
#X obj 51 211 random 100;
#X msg 51 265 1;
#X msg 96 265 0;
#X obj 51 184 metro 1000;
#X obj 51 238 moses 65;
#X obj 96 292 bng 15 250 50 0 reset empty empty 17 7 0 10 -262144 -1
-1;
#X connect 0 0 5 0;
#X connect 1 0 0 0;
#X connect 1 0 2 0;
#X connect 1 0 3 0;
#X connect 1 0 4 0;
#X connect 1 0 9 0;
#X connect 2 0 6 0;
#X connect 3 0 7 0;
#X connect 4 0 60 0;
#X connect 5 0 8 0;
#X connect 6 0 8 0;
#X connect 7 0 8 0;
#X connect 9 0 61 0;
#X connect 10 0 28 0;
#X connect 10 0 52 0;
#X connect 11 0 21 0;
#X connect 11 0 53 0;
#X connect 12 0 41 0;
#X connect 12 0 54 0;
#X connect 13 0 19 1;
#X connect 14 0 17 1;
#X connect 16 0 35 0;
#X connect 16 0 55 0;
#X connect 17 0 13 0;
#X connect 18 0 17 0;
#X connect 18 0 19 0;
#X connect 19 0 20 0;
#X connect 20 0 11 1;
#X connect 21 0 18 0;
#X connect 21 0 57 0;
#X connect 22 0 26 1;
#X connect 23 0 24 1;
#X connect 24 0 22 0;
#X connect 25 0 24 0;
#X connect 25 0 26 0;
#X connect 26 0 27 0;
#X connect 27 0 10 1;
#X connect 28 0 25 0;
#X connect 28 0 56 0;
#X connect 29 0 33 1;
#X connect 30 0 31 1;
#X connect 31 0 29 0;
#X connect 32 0 31 0;
#X connect 32 0 33 0;
#X connect 33 0 34 0;
#X connect 34 0 16 1;
#X connect 35 0 32 0;
#X connect 35 0 59 0;
#X connect 36 0 39 1;
#X connect 37 0 38 1;
#X connect 38 0 36 0;
#X connect 39 0 40 0;
#X connect 40 0 12 1;
#X connect 41 0 62 0;
#X connect 41 0 58 0;
#X connect 42 0 10 0;
#X connect 42 0 11 0;
#X connect 42 0 12 0;
#X connect 42 0 16 0;
#X connect 43 0 45 0;
#X connect 43 2 44 0;
#X connect 46 0 48 0;
#X connect 46 2 47 0;
#X connect 49 0 51 0;
#X connect 49 2 50 0;
#X connect 52 0 43 0;
#X connect 53 0 46 0;
#X connect 54 0 49 0;
#X connect 55 0 15 0;
#X connect 56 0 26 2;
#X connect 57 0 19 2;
#X connect 58 0 39 2;
#X connect 59 0 33 2;
#X connect 60 0 8 0;
#X connect 61 0 8 0;
#X connect 62 0 38 0;
#X connect 62 0 39 0;
#X connect 63 0 67 0;
#X connect 63 0 66 0;
#X connect 64 0 68 0;
#X connect 65 0 42 0;
#X connect 66 0 42 0;
#X connect 66 0 69 0;
#X connect 67 0 64 0;
#X connect 68 0 65 0;
#X connect 68 1 66 0;
#X restore 24 22 pd clock;
#N canvas 764 279 450 300 display 0;
#X msg 80 134 \; canvas color \$1;
#X obj 80 60 bng 15 250 50 0 empty b_row1 empty 17 7 0 10 -262144 -1
-1;
#X obj 110 60 bng 15 250 50 0 empty b_row2 empty 17 7 0 10 -262144
-1 -1;
#X obj 140 60 bng 15 250 50 0 empty b_row3 empty 17 7 0 10 -262144
-1 -1;
#X obj 170 60 bng 15 250 50 0 empty reset empty 17 7 0 10 -262144 -1
-1;
#X msg 140 97 4;
#X msg 80 97 6;
#X msg 170 97 0;
#X msg 110 97 7;
#X connect 1 0 6 0;
#X connect 2 0 8 0;
#X connect 3 0 5 0;
#X connect 4 0 7 0;
#X connect 5 0 0 0;
#X connect 6 0 0 0;
#X connect 7 0 0 0;
#X connect 8 0 0 0;
#X restore 144 22 pd display;
#N canvas 43 23 928 716 audio 0;
#X obj 38 277 cnv 15 340 225 empty empty empty 20 12 0 14 -204800 -66577
0;
#X obj 54 309 sel 0;
#X floatatom 54 293 5 0 0 0 - row2 -;
#X obj 134 309 sel 1;
#X obj 214 309 sel 2;
#X obj 294 309 sel 3;
#X obj 54 342 random 100;
#X obj 134 342 random 100;
#X obj 214 342 random 100;
#X obj 294 342 random 100;
#X obj 38 507 cnv 15 340 225 empty empty empty 20 12 0 14 -261682 -66577
0;
#X obj 54 539 sel 0;
#X floatatom 54 523 5 0 0 0 - row3 -;
#X obj 134 539 sel 1;
#X obj 214 539 sel 2;
#X obj 294 539 sel 3;
#X obj 54 572 random 100;
#X obj 134 572 random 100;
#X obj 214 572 random 100;
#X obj 294 572 random 100;
#X obj 38 47 cnv 15 340 225 empty empty empty 20 12 0 14 -204786 -66577
0;
#X obj 54 79 sel 0;
#X floatatom 54 63 5 0 0 0 - row1 -;
#X obj 134 79 sel 1;
#X obj 214 79 sel 2;
#X obj 294 79 sel 3;
#X obj 54 112 random 100;
#X obj 134 112 random 100;
#X obj 214 112 random 100;
#X obj 294 112 random 100;
#X obj 134 139 moses 75;
#X obj 214 139 moses 75;
#X obj 294 139 moses 75;
#X obj 294 369 moses 75;
#X obj 214 369 moses 75;
#X obj 134 369 moses 75;
#X obj 54 369 moses 75;
#X obj 54 599 moses 75;
#X obj 134 599 moses 75;
#X obj 214 599 moses 75;
#X obj 294 599 moses 75;
#X floatatom 99 21 5 0 0 0 - difference -;
#X obj 54 139 moses 75;
#X floatatom 179 21 5 0 0 0 - difference -;
#X floatatom 259 21 5 0 0 0 - difference -;
#X floatatom 339 21 5 0 0 0 - difference -;
#X obj 434 209 loadbang;
#X msg 434 236 75;
#X floatatom 434 263 5 0 0 0 - - default;
#X obj 434 451 dac~;
#X obj 484 414 bp~ 100 10;
#X floatatom 551 388 5 0 0 0 - - -;
#X obj 551 278 bng 15 250 50 0 empty empty empty 17 7 0 10 -262144
-1 -1;
#X obj 551 361 line;
#X obj 551 226 bng 15 250 50 0 empty empty empty 17 7 0 10 -262144
-1 -1;
#X msg 551 324 10 250;
#X obj 595 293 delay 250;
#X obj 551 251 metro 485;
#X floatatom 514 385 5 0 0 0 - - -;
#X msg 595 323 1 250;
#X msg 99 176 G 4;
#X msg 54 176 E 4;
#X msg 134 176 F# 4;
#X msg 179 176 C# 5;
#X msg 214 176 B 4;
#X msg 259 176 E 5;
#X msg 294 176 D 5;
#X msg 339 176 F# 5;
#X msg 54 406 C 4;
#X msg 99 406 A 3;
#X msg 134 406 D 4;
#X msg 214 406 G 4;
#X msg 179 406 B 3;
#X msg 259 406 E 4;
#X msg 294 406 A 4;
#X msg 339 406 F# 4;
#X obj 294 701 bass;
#X msg 54 636 C 2;
#X msg 99 636 A 1;
#X msg 134 636 D 2;
#X msg 179 636 B 1;
#X msg 214 636 G 2;
#X msg 259 636 E 2;
#X msg 294 636 A 2;
#X msg 339 636 F# 2;
#X obj 434 327 catch~;
#X obj 134 701 bass;
#X obj 54 701 bass;
#X obj 214 701 bass;
#X obj 434 404 *~ 0.5;
#X obj 454 524 writesf~ 2;
#X text 412 484 connect your outputs here;
#X text 638 411 name and open your new file;
#X text 646 456 then hit start;
#X msg 658 473 start;
#X text 639 492 then stop when you're done;
#X msg 652 513 stop;
#X msg 588 431 open paramount.aiff;
#X obj 54 471 bell;
#X obj 134 471 bell;
#X obj 214 471 bell;
#X obj 294 470 bell;
#X obj 54 241 tone;
#X obj 134 241 tone;
#X obj 214 241 tone;
#X obj 294 240 tone;
#X connect 1 0 6 0;
#X connect 2 0 1 0;
#X connect 2 0 3 0;
#X connect 2 0 4 0;
#X connect 2 0 5 0;
#X connect 3 0 7 0;
#X connect 4 0 8 0;
#X connect 5 0 9 0;
#X connect 6 0 36 0;
#X connect 7 0 35 0;
#X connect 8 0 34 0;
#X connect 9 0 33 0;
#X connect 11 0 16 0;
#X connect 12 0 11 0;
#X connect 12 0 13 0;
#X connect 12 0 14 0;
#X connect 12 0 15 0;
#X connect 13 0 17 0;
#X connect 14 0 18 0;
#X connect 15 0 19 0;
#X connect 16 0 37 0;
#X connect 17 0 38 0;
#X connect 18 0 39 0;
#X connect 19 0 40 0;
#X connect 21 0 26 0;
#X connect 22 0 21 0;
#X connect 22 0 23 0;
#X connect 22 0 24 0;
#X connect 22 0 25 0;
#X connect 23 0 27 0;
#X connect 24 0 28 0;
#X connect 25 0 29 0;
#X connect 26 0 42 0;
#X connect 27 0 30 0;
#X connect 28 0 31 0;
#X connect 29 0 32 0;
#X connect 30 0 62 0;
#X connect 30 1 63 0;
#X connect 31 0 64 0;
#X connect 31 1 65 0;
#X connect 32 0 66 0;
#X connect 32 1 67 0;
#X connect 33 0 74 0;
#X connect 33 1 75 0;
#X connect 34 0 71 0;
#X connect 34 1 73 0;
#X connect 35 0 70 0;
#X connect 35 1 72 0;
#X connect 36 0 68 0;
#X connect 36 1 69 0;
#X connect 37 0 77 0;
#X connect 37 1 78 0;
#X connect 38 0 79 0;
#X connect 38 1 80 0;
#X connect 39 0 81 0;
#X connect 39 1 82 0;
#X connect 40 0 83 0;
#X connect 40 1 84 0;
#X connect 41 0 42 1;
#X connect 41 0 36 1;
#X connect 41 0 37 1;
#X connect 42 0 61 0;
#X connect 42 1 60 0;
#X connect 43 0 30 1;
#X connect 43 0 35 1;
#X connect 43 0 38 1;
#X connect 44 0 31 1;
#X connect 44 0 34 1;
#X connect 44 0 39 1;
#X connect 45 0 32 1;
#X connect 45 0 33 1;
#X connect 45 0 40 1;
#X connect 46 0 47 0;
#X connect 46 0 54 0;
#X connect 47 0 48 0;
#X connect 50 0 49 0;
#X connect 50 0 49 1;
#X connect 50 0 90 0;
#X connect 50 0 90 1;
#X connect 51 0 50 2;
#X connect 52 0 55 0;
#X connect 52 0 56 0;
#X connect 53 0 51 0;
#X connect 54 0 57 0;
#X connect 55 0 53 0;
#X connect 56 0 59 0;
#X connect 57 0 52 0;
#X connect 58 0 50 1;
#X connect 59 0 53 0;
#X connect 60 0 102 0;
#X connect 61 0 102 0;
#X connect 62 0 103 0;
#X connect 63 0 103 0;
#X connect 64 0 104 0;
#X connect 65 0 104 0;
#X connect 66 0 105 0;
#X connect 67 0 105 0;
#X connect 68 0 98 0;
#X connect 69 0 98 0;
#X connect 70 0 99 0;
#X connect 71 0 100 0;
#X connect 72 0 99 0;
#X connect 73 0 100 0;
#X connect 74 0 101 0;
#X connect 75 0 101 0;
#X connect 77 0 87 0;
#X connect 78 0 87 0;
#X connect 79 0 86 0;
#X connect 80 0 86 0;
#X connect 81 0 88 0;
#X connect 82 0 88 0;
#X connect 83 0 76 0;
#X connect 84 0 76 0;
#X connect 85 0 50 0;
#X connect 85 0 89 0;
#X connect 89 0 49 0;
#X connect 89 0 49 1;
#X connect 89 0 90 0;
#X connect 89 0 90 1;
#X connect 94 0 90 0;
#X connect 96 0 90 0;
#X connect 97 0 90 0;
#X restore 84 22 pd audio;
#N canvas 0 109 706 611 samples 0;
#X obj 502 283 readsf~;
#X obj 604 279 bng 15 250 50 0 empty startsample2 empty 17 7 0 10 -262144
-1 -1;
#X msg 463 256 0;
#X obj 502 229 readsf~;
#X obj 604 225 bng 15 250 50 0 empty startsample1 empty 17 7 0 10 -262144
-1 -1;
#X msg 463 202 0;
#X obj 502 397 throw~;
#X obj 502 370 *~;
#X obj 572 353 line~;
#X obj 463 187 bng 15 250 50 0 empty stopsample1 empty 17 7 0 10 -262144
-1 -1;
#X obj 463 241 bng 15 250 50 0 empty stopsample2 empty 17 7 0 10 -262144
-1 -1;
#X obj 572 312 bng 15 250 50 0 empty fadesamplesin empty 17 7 0 10
-262144 -1 -1;
#X obj 635 312 bng 15 250 50 0 empty fadesamplesout empty 17 7 0 10
-262144 -1 -1;
#X text 89 100 first start sample 1;
#X text 92 152 then fade it in;
#X text 90 319 fade both samples out;
#X obj 70 102 bng 15 250 50 0 empty empty empty 17 7 0 10 -262144 -1
-1;
#X obj 70 154 bng 15 250 50 0 empty empty empty 17 7 0 10 -262144 -1
-1;
#X obj 70 258 bng 15 250 50 0 empty empty empty 17 7 0 10 -262144 -1
-1;
#X text 140 127 wait 5 seconds;
#X text 143 180 let if play for 30 seconds;
#X obj 70 206 bng 15 250 50 0 empty empty empty 17 7 0 10 -262144 -1
-1;
#X text 148 293 let both play for 45 seconds;
#X obj 70 320 bng 15 250 50 0 empty empty empty 17 7 0 10 -262144 -1
-1;
#X obj 70 372 bng 15 250 50 0 empty empty empty 17 7 0 10 -262144 -1
-1;
#X text 93 205 then fade it out;
#X text 114 256 start sample 2 and fade both samples in;
#X obj 90 258 bng 15 250 50 0 empty empty empty 17 7 0 10 -262144 -1
-1;
#X text 149 344 wait 10 seconds;
#X text 109 370 then kill sample 1 and fade in sample 2;
#X obj 90 372 bng 15 250 50 0 empty empty empty 17 7 0 10 -262144 -1
-1;
#X text 148 407 let it play for 35 seconds;
#X obj 70 486 bng 15 250 50 0 empty empty empty 17 7 0 10 -262144 -1
-1;
#X obj 70 434 bng 15 250 50 0 empty empty empty 17 7 0 10 -262144 -1
-1;
#X text 140 459 wait 5 seconds;
#X text 93 433 then fade it out;
#X obj 249 117 bng 15 250 50 0 startsample1 empty startsample1 17 7
0 10 -262144 -1 -1;
#X obj 329 169 bng 15 250 50 0 fadesamplesin empty fadesamplesin 17
7 0 10 -262144 -1 -1;
#X obj 257 221 bng 15 250 50 0 fadesamplesout empty fadesamplesout
17 7 0 10 -262144 -1 -1;
#X obj 357 278 bng 15 250 50 0 startsample2 empty startsample2 17 7
0 10 -262144 -1 -1;
#X obj 344 387 bng 15 250 50 0 stopsample1 empty stopsample1 17 7 0
10 -262144 -1 -1;
#X obj 190 501 bng 15 250 50 0 stopsample2 empty stopsample2 17 7 0
10 -262144 -1 -1;
#X obj 357 293 bng 15 250 50 0 fadesamplesin empty fadesamplesin 17
7 0 10 -262144 -1 -1;
#X obj 266 335 bng 15 250 50 0 fadesamplesout empty fadesamplesout
17 7 0 10 -262144 -1 -1;
#X obj 253 449 bng 15 250 50 0 fadesamplesout empty fadesamplesout
17 7 0 10 -262144 -1 -1;
#X obj 344 402 bng 15 250 50 0 fadesamplesin empty fadesamplesin 17
7 0 10 -262144 -1 -1;
#X msg 26 110 stop;
#X text 150 231 wait 10 seconds;
#X text 91 484 and kill it and start all over again;
#X obj 568 154 bng 15 250 50 0 stopsample2 empty stopsample2 17 7 0
10 -262144 -1 -1;
#X obj 467 152 bng 15 250 50 0 stopsample1 empty stopsample1 17 7 0
10 -262144 -1 -1;
#X obj 547 110 bng 15 250 50 0 fadesamplesoutfast empty fadesamplesout
17 7 0 10 -262144 -1 -1;
#X obj 468 92 bng 15 250 50 0 empty empty empty 17 7 0 10 -262144 -1
-1;
#X obj 437 116 delay 5000;
#X obj 70 127 delay 10000;
#X obj 70 179 delay 60000;
#X obj 70 231 delay 20000;
#X obj 70 293 delay 90000;
#X obj 70 345 delay 20000;
#X obj 70 407 delay 70000;
#X obj 70 459 delay 10000;
#X msg 635 327 0 10000;
#X obj 518 311 bng 15 250 50 0 empty fadesamplesoutfast empty 17 7
0 10 -262144 -1 -1;
#X msg 518 326 0 5000;
#X msg 502 202 open ./samples/tour.wav \, 1;
#X msg 502 256 open ./samples/waves.wav \, 1;
#X obj 43 48 r power;
#X obj 43 75 sel 0;
#X msg 572 327 1 10000;
#X connect 0 0 7 0;
#X connect 0 1 1 0;
#X connect 1 0 65 0;
#X connect 2 0 0 0;
#X connect 3 0 7 0;
#X connect 3 1 4 0;
#X connect 4 0 64 0;
#X connect 5 0 3 0;
#X connect 7 0 6 0;
#X connect 8 0 7 1;
#X connect 9 0 5 0;
#X connect 10 0 2 0;
#X connect 11 0 68 0;
#X connect 12 0 61 0;
#X connect 16 0 36 0;
#X connect 16 0 54 0;
#X connect 17 0 37 0;
#X connect 17 0 55 0;
#X connect 18 0 39 0;
#X connect 18 0 57 0;
#X connect 21 0 38 0;
#X connect 21 0 56 0;
#X connect 23 0 43 0;
#X connect 23 0 58 0;
#X connect 24 0 40 0;
#X connect 24 0 59 0;
#X connect 27 0 42 0;
#X connect 30 0 45 0;
#X connect 32 0 41 0;
#X connect 32 0 16 0;
#X connect 33 0 44 0;
#X connect 33 0 60 0;
#X connect 46 0 54 0;
#X connect 46 0 55 0;
#X connect 46 0 56 0;
#X connect 46 0 57 0;
#X connect 46 0 58 0;
#X connect 46 0 59 0;
#X connect 46 0 60 0;
#X connect 52 0 51 0;
#X connect 52 0 53 0;
#X connect 53 0 50 0;
#X connect 53 0 49 0;
#X connect 54 0 17 0;
#X connect 55 0 21 0;
#X connect 56 0 18 0;
#X connect 56 0 27 0;
#X connect 57 0 23 0;
#X connect 58 0 24 0;
#X connect 58 0 30 0;
#X connect 59 0 33 0;
#X connect 60 0 32 0;
#X connect 61 0 8 0;
#X connect 62 0 63 0;
#X connect 63 0 8 0;
#X connect 64 0 3 0;
#X connect 65 0 0 0;
#X connect 66 0 67 0;
#X connect 67 0 52 0;
#X connect 67 0 46 0;
#X connect 67 1 16 0;
#X connect 68 0 8 0;
#X restore 216 22 pd samples;
#X restore 293 201 pd resources;
#X obj 298 43 cnv 15 45 45 empty empty empty 20 12 0 14 -128992 -66577
0;
#X obj 293 38 tgl 45 0 power r_null START/STOP 60 22 0 22 -262144 -1
-262144 0 1;
#X obj 293 102 cnv 15 149 15 empty empty empty 20 12 0 14 -262130 -66577
0;
#X text 295 101 Paramount (Autumn \, 2014);
#X obj 293 122 cnv 15 119 15 empty empty empty 20 12 0 14 -257985 -66577
0;
#X text 295 121 by Christopher Noce;
#X obj 293 152 cnv 15 257 15 empty empty empty 20 12 0 14 -262130 -66577
0;
#X text 295 151 a generative \, harmonic/melodic composition;
#X obj 293 172 cnv 15 215 15 empty empty empty 20 12 0 14 -262130 -66577
0;
#X text 295 171 for puredata and pre-recorded audio;
