#N canvas 0 22 506 300 10;
#X obj 97 141 phasor~;
#X obj 97 114 mtof;
#X obj 57 141 mtof;
#X obj 57 168 osc~;
#X obj 97 225 *~;
#X obj 255 208 vline~;
#X obj 147 141 expr~ $v1 > 0.5;
#X obj 255 61 bng 15 250 50 0 empty empty Play 20 7 0 10 -262144 -1
-1;
#X obj 147 114 phasor~;
#X obj 147 87 mtof;
#X obj 97 87 -12;
#X floatatom 57 71 5 0 0 0 - - -;
#X obj 275 151 vline~;
#X obj 97 168 *~;
#X msg 275 124 0.02 0 \, 0.02 0 100 \, 0 3500 100;
#X obj 147 168 *~ 0.03;
#X msg 255 181 0.5 5 \, 0.4 0 100 \, 0 2500 100;
#X obj 57 17 inlet;
#X obj 57 44 note;
#X obj 97 262 throw~;
#X connect 0 0 13 0;
#X connect 1 0 0 0;
#X connect 2 0 3 0;
#X connect 3 0 4 0;
#X connect 4 0 19 0;
#X connect 5 0 4 1;
#X connect 6 0 15 0;
#X connect 7 0 16 0;
#X connect 7 0 14 0;
#X connect 8 0 6 0;
#X connect 9 0 8 0;
#X connect 10 0 1 0;
#X connect 11 0 10 0;
#X connect 11 0 2 0;
#X connect 11 0 9 0;
#X connect 12 0 13 1;
#X connect 13 0 19 0;
#X connect 14 0 12 0;
#X connect 15 0 4 0;
#X connect 16 0 5 0;
#X connect 17 0 18 0;
#X connect 18 0 11 0;
#X connect 18 0 7 0;
